<svg id="visual" viewBox="0 0 960 300" width="960" height="300" xmlns="http://www.w3.org/2000/svg" xmlns:xlink="http://www.w3.org/1999/xlink" version="1.1">
  <defs>
    <linearGradient id="gradient" x1="0%" y1="0%" x2="100%" y2="0%">
      <stop offset="0%" stop-color="#080814" />
      <stop offset="100%" stop-color="#13122F" />
    </linearGradient>
  </defs>
  <rect x="0" y="0" width="960" height="300" fill="#141332"></rect>
  <path d="M0 53L16 51.7C32 50.3 64 47.7 96 52.5C128 57.3 160 69.7 192 71.3C224 73 256 64 288 64C320 64 352 73 384 80.8C416 88.7 448 95.3 480 90.3C512 85.3 544 68.7 576 63C608 57.3 640 62.7 672 67.8C704 73 736 78 768 80.3C800 82.7 832 82.3 864 83.7C896 85 928 88 944 89.5L960 91L960 0L944 0C928 0 896 0 864 0C832 0 800 0 768 0C736 0 704 0 672 0C640 0 608 0 576 0C544 0 512 0 480 0C448 0 416 0 384 0C352 0 320 0 288 0C256 0 224 0 192 0C160 0 128 0 96 0C64 0 32 0 16 0L0 0Z" fill="url(#gradient)" stroke-linecap="round" stroke-linejoin="miter"></path>
</svg>
